<svg xmlns:xlink="http://www.w3.org/1999/xlink" xmlns="http://www.w3.org/2000/svg" width="52" height="52" viewBox="0 0 52 52" fill="none">
<rect width="52" height="52" rx="26" fill="#015404"/>
<g filter="url(#filter0_d_1_1955)">
<path d="M26 16C20.48 16 16 20.48 16 26C16 31.52 20.48 36 26 36C31.52 36 36 31.52 36 26C36 20.48 31.52 16 26 16ZM26 22.75C25.59 22.75 25.25 22.41 25.25 22C25.25 21.59 25.59 21.25 26 21.25C28.62 21.25 30.75 23.38 30.75 26C30.75 28.62 28.62 30.75 26 30.75C25.59 30.75 25.25 30.41 25.25 30C25.25 29.59 25.59 29.25 26 29.25C27.79 29.25 29.25 27.79 29.25 26C29.25 24.21 27.79 22.75 26 22.75ZM26 33.75C21.73 33.75 18.25 30.27 18.25 26C18.25 25.59 18.59 25.25 19 25.25C19.41 25.25 19.75 25.59 19.75 26C19.75 29.45 22.55 32.25 26 32.25C29.45 32.25 32.25 29.45 32.25 26C32.25 22.55 29.45 19.75 26 19.75C25.59 19.75 25.25 19.41 25.25 19C25.25 18.59 25.59 18.25 26 18.25C30.27 18.25 33.75 21.73 33.75 26C33.75 30.27 30.27 33.75 26 33.75Z" fill="#FFBE2B"/>
</g>
<defs>
<filter id="filter0_d_1_1955" x="10" y="14" width="32" height="32" filterUnits="userSpaceOnUse" color-interpolation-filters="sRGB">
<feFlood flood-opacity="0" result="BackgroundImageFix"/>
<feColorMatrix in="SourceAlpha" type="matrix" values="0 0 0 0 0 0 0 0 0 0 0 0 0 0 0 0 0 0 127 0" result="hardAlpha"/>
<feOffset dy="4"/>
<feGaussianBlur stdDeviation="2"/>
<feComposite in2="hardAlpha" operator="out"/>
<feColorMatrix type="matrix" values="0 0 0 0 0 0 0 0 0 0 0 0 0 0 0 0 0 0 0.25 0"/>
<feBlend mode="normal" in2="BackgroundImageFix" result="effect1_dropShadow_1_1955"/>
<feBlend mode="normal" in="SourceGraphic" in2="effect1_dropShadow_1_1955" result="shape"/>
</filter>
</defs>
</svg>