<svg xmlns:xlink="http://www.w3.org/1999/xlink" xmlns="http://www.w3.org/2000/svg" width="52" height="52" viewBox="0 0 52 52" fill="none">
<rect width="52" height="52" rx="26" fill="#015404"/>
<path d="M31.6 19.31L25.95 16.27C25.35 15.95 24.64 15.95 24.04 16.27L18.4 19.31C17.99 19.54 17.73 19.98 17.73 20.46C17.73 20.95 17.98 21.39 18.4 21.61L24.05 24.65C24.35 24.81 24.68 24.89 25 24.89C25.32 24.89 25.66 24.81 25.95 24.65L31.6 21.61C32.01 21.39 32.27 20.95 32.27 20.46C32.27 19.98 32.01 19.54 31.6 19.31Z" fill="white"/>
<path d="M23.12 25.7101L17.87 23.0901C17.46 22.8801 17 22.9101 16.61 23.1401C16.23 23.3801 16 23.7901 16 24.2401V29.2001C16 30.0601 16.48 30.8301 17.25 31.2201L22.5 33.8401C22.68 33.9301 22.88 33.9801 23.08 33.9801C23.31 33.9801 23.55 33.9101 23.76 33.7901C24.14 33.5501 24.37 33.1401 24.37 32.6901V27.7301C24.36 26.8701 23.88 26.1001 23.12 25.7101Z" fill="white"/>
<path d="M33.9999 24.2401V26.7001C33.5199 26.5601 33.0099 26.5001 32.4999 26.5001C31.1399 26.5001 29.8099 26.9701 28.7599 27.8101C27.3199 28.9401 26.4999 30.6501 26.4999 32.5001C26.4999 32.9901 26.5599 33.4801 26.6899 33.9501C26.5399 33.9301 26.3899 33.8701 26.2499 33.7801C25.8699 33.5501 25.6399 33.1401 25.6399 32.6901V27.7301C25.6399 26.8701 26.1199 26.1001 26.8799 25.7101L32.1299 23.0901C32.5399 22.8801 32.9999 22.9101 33.3899 23.1401C33.7699 23.3801 33.9999 23.7901 33.9999 24.2401Z" fill="white"/>
<path d="M36.58 35.5L35.74 34.66C36.18 34 36.44 33.2 36.44 32.35C36.44 30.02 34.55 28.13 32.22 28.13C29.89 28.13 28 30.02 28 32.35C28 34.68 29.89 36.57 32.22 36.57C33.07 36.57 33.87 36.31 34.53 35.87L35.37 36.71C35.54 36.88 35.75 36.96 35.97 36.96C36.19 36.96 36.41 36.88 36.57 36.71C36.91 36.37 36.91 35.83 36.58 35.5Z" fill="#FFBE2B"/>
</svg>