<svg xmlns="http://www.w3.org/2000/svg" xmlns:xlink="http://www.w3.org/1999/xlink" version="1.1" id="Layer_1" x="0px" y="0px" viewBox="0 0 170 46" style="enable-background:new 0 0 170 46;" xml:space="preserve" width="190"  height="51" >
<style type="text/css">
	.st0{clip-path:url(#SVGID_00000005947468631758712070000014009797359340319873_);}
	.st1{fill:#FFFFFF;}
	.st2{fill:#FFFFFF;stroke:#FFFFFF;stroke-width:0.5;stroke-miterlimit:10;}
</style>
<g>
	<defs>
		<rect id="SVGID_1_" width="32" height="46"/>
	</defs>
	<clipPath id="SVGID_00000167367369047465260770000011991791954289993623_">
		<use xlink:href="#SVGID_1_" style="overflow:visible;"/>
	</clipPath>
	<g style="clip-path:url(#SVGID_00000167367369047465260770000011991791954289993623_);">
		<path class="st1" d="M16.4,8.8c-0.3-7.7,10.3-6.5,14.8-3.6c2,1.5-1.9,1.4-2.5,2.4c-1.3,1.2-2,2.9-3.3,4c-3.4,3.3-4.6,1.5-7.9,1.1    c-1.6,2.6,5,2.6,6.9,4.1c0.4,0.3,0.8,0.6,1.2,0.9c13.2,9.5,4.3,30.4-11.7,28.1C-3.8,43.6-5,18.9,12.5,15c0.7-0.3,2.1-0.4,2.3-1.1    c-0.2-1.3-0.4-3-1.3-4c-1.7,0.5-3.5,1-5.3,0.3c-3.3-1.5-3.9-6-7.4-7.3c-1.4-1.2,1.6-1.6,2.5-2c0.2-0.1,0.3-0.1,0.5-0.2    c3.1-1.1,6.9-0.9,9.6,1c2.5,1.5,2.3,4.7,1.2,7C15.5,10.6,16.8,12.1,16.4,8.8z M1.9,31c-0.1,2.3,0.5,4.4,1.7,6.3    c0.1,0.2,0.2,0.3,0.4,0.4c0.2,0.1,0.3,0.2,0.5,0.2s0.4,0,0.5-0.1c0.2-0.1,0.3-0.2,0.4-0.3c1.2-1.4,2.9-3.9,6.4-1.3    c2.5,2.5,1,4.7,4.1,5.7c0.9,0.3,1.8,0.7,2.7,1.2c4.8,2.7,14.3-9.7,9.1-7.9c-1.4,0.6-0.8,2.9-2.1,3.8c-2.3,2.2-5.3,0.7-6.2-1.9    c-0.2-0.5-0.4-0.9-0.7-1.3s-0.7-0.7-1.2-0.9c-1.9-0.9-4.2-1.5-3.3-4.5c0.7-2.4,2.9-2.3,4.8-2.5c1.6-0.1,2.9-1.4,3-3.1    c0.3-5.4,4.5-4.3,2.3-5.9c-0.2-0.2-0.5-0.3-0.7-0.4c-3.5-1.8-8.7-3.1-12.3-1.1c-0.2,0.1-0.4,0.4-0.5,0.6c-0.1,0.3-0.1,0.6,0.1,0.8    c1,1.9,4.6,0.4,6.1,2c3,2.4,0.3,6-2.9,5.7C9.2,25.6,11,31.2,7.3,32c-4.7,1.5-5.3-7.4-5.3-2.1C1.9,30.3,1.9,30.7,1.9,31z     M18.7,29.5c-1.8-0.3-4,1.5-2.1,3.1c1.1,0.5,2.5,0.6,3.4,1.4c0.9,0.9,1.1,2.2,1.5,3.3c2.5,2.8,3.3-1.5,4.3-3.1    c0.8-0.9,2-1.3,3.1-1.3c3-1,0.9-5.9,0.2-8.1c-0.4-2.5-4.2-5.1-5-1.9C24,23.3,24,23.5,24,23.8c0.1,3.1-1.5,5.9-4.8,5.7    C19.1,29.6,18.9,29.5,18.7,29.5z M14,24.5c1.3,0.2,2.5-0.6,2.1-1.7c-0.2-0.5-0.6-0.8-1.1-0.9c-0.5-0.1-0.9-0.1-1.4-0.1    c-0.9,0-1.8-0.3-2.6-0.7c-0.8-0.4-1.5-1-2.1-1.7c-1-1.3-1-0.7-3.3,1.2c-0.6,0.7-1.4,1.5-2.1,2.4c-0.3,0.5-0.6,1.1-0.6,1.7    c0,0.6,0.1,1.2,0.4,1.7c1,1.8,1.1,4.6,3.8,3.8C9.9,26.7,8.3,24.8,14,24.5z M23.6,4.6c-4.4-0.7-8.1,6.1-3.7,4.2    c0.9,0.8-2.5,1.6,0.2,2.7c2.7,1.1,4.9-1.6,6.1-3.7C29.2,4.9,26.1,4.8,23.6,4.6z M7.5,1.8c-1.8-0.1-4,0.4-2.2,2.5    c1.2,2.1,3.1,5.4,5.9,4.6c2-0.7,0.8-1.4,0.3-2.6c0.9-0.3,2.2,2.2,2.3-1.1C13.2,2.3,10,1.9,7.5,1.8L7.5,1.8z M15.2,44.2    c4-0.2-2.2-1.1-2.8-2.6c0-0.1-0.1-0.1-0.1-0.2c-1.1-2.2-1-5.5-4.6-4.2C3.1,41.5,11.9,44.1,15.2,44.2z"/>
	</g>
</g>
<g>
	<path class="st2" d="M45.6,28.8H47c0.2,1.3,1.1,1.9,2.6,1.9c1.6,0,2.5-0.7,2.5-1.8c0-0.8-0.4-1.4-1.8-1.7l-1.6-0.3   c-2.2-0.4-3-1.4-3-2.9c0-1.8,1.3-3,3.8-3c2.4,0,3.8,1.1,3.9,3.3h-1.4c-0.1-1.5-0.9-2-2.5-2c-1.6,0-2.4,0.6-2.4,1.7   c0,0.9,0.5,1.4,2.1,1.7l1.6,0.3c1.9,0.4,2.7,1.4,2.7,2.8c0,2-1.5,3.1-3.9,3.1C47.3,31.9,45.8,30.8,45.6,28.8z"/>
	<path class="st2" d="M62.5,24.7v7.1h-1.2l-0.1-1.1h0c-0.4,0.8-1.4,1.3-2.5,1.3c-2,0-3.5-1.6-3.5-3.7c0-2.1,1.6-3.7,3.5-3.7   c1.1,0,2.1,0.5,2.5,1.3h0l0.1-1.1H62.5z M61.3,28.2c0-1.4-0.9-2.5-2.4-2.5c-1.4,0-2.4,1.1-2.4,2.5c0,1.4,0.9,2.5,2.4,2.5   C60.3,30.7,61.3,29.7,61.3,28.2z"/>
	<path class="st2" d="M64,24.7h1.4l2.3,5.5h0l2.3-5.5h1.4l-3.1,7.1h-1.1L64,24.7z"/>
	<path class="st2" d="M79.4,28.7h-5.8c0.2,1.4,1,2.1,2.4,2.1c1.1,0,1.9-0.5,2.1-1.2h1.3c-0.3,1.3-1.5,2.3-3.4,2.3   c-2.2,0-3.7-1.5-3.7-3.7c0-2.2,1.5-3.7,3.6-3.7c2.1,0,3.6,1.4,3.6,3.7C79.4,28.4,79.4,28.5,79.4,28.7z M73.6,27.6h4.5   c-0.2-1.3-1-2-2.2-2C74.6,25.6,73.8,26.3,73.6,27.6z"/>
	<path class="st2" d="M89.6,24.6c0,2.2-1.4,3.5-3.8,3.5H83v3.7h-1.4V21.1h4.2C88.2,21.1,89.6,22.4,89.6,24.6z M88.2,24.6   c0-1.5-0.8-2.2-2.5-2.2H83v4.4h2.7C87.4,26.8,88.2,26.1,88.2,24.6z"/>
	<path class="st2" d="M91.5,21.1h1.3v10.6h-1.3V21.1z"/>
	<path class="st2" d="M102.1,24.7v7.1h-1.2l-0.1-1.1h0c-0.4,0.8-1.4,1.3-2.5,1.3c-2,0-3.5-1.6-3.5-3.7c0-2.1,1.6-3.7,3.5-3.7   c1.1,0,2.1,0.5,2.5,1.3h0l0.1-1.1H102.1z M100.8,28.2c0-1.4-0.9-2.5-2.4-2.5c-1.4,0-2.4,1.1-2.4,2.5c0,1.4,0.9,2.5,2.4,2.5   C99.9,30.7,100.8,29.7,100.8,28.2z"/>
	<path class="st2" d="M111.1,27.5v4.3h-1.3v-4c0-1.4-0.7-2.1-1.9-2.1c-1.3,0-2.2,0.8-2.2,2.1v3.9h-1.3v-7.1h1.2l0.1,1.1h0   c0.4-0.8,1.3-1.3,2.5-1.3C110,24.5,111.1,25.6,111.1,27.5z"/>
	<path class="st2" d="M120,28.7h-5.8c0.2,1.4,1,2.1,2.4,2.1c1.1,0,1.9-0.5,2.1-1.2h1.3c-0.3,1.3-1.5,2.3-3.4,2.3   c-2.2,0-3.7-1.5-3.7-3.7c0-2.2,1.5-3.7,3.6-3.7c2.1,0,3.6,1.4,3.6,3.7C120.1,28.4,120.1,28.5,120,28.7z M114.2,27.6h4.5   c-0.2-1.3-1-2-2.2-2C115.3,25.6,114.4,26.3,114.2,27.6z"/>
	<path class="st2" d="M126.9,30.4v1.2c-0.5,0.3-1,0.4-1.6,0.4c-1.6,0-2.5-0.8-2.5-2.6v-3.5H121v-1.1h1.7v-2h1.3v2h2.8v1.1H124v3.4   c0,1.1,0.5,1.5,1.5,1.5C125.9,30.7,126.4,30.7,126.9,30.4z"/>
	<path class="st2" d="M136.1,30.5v1.3h-7.3V21.1h7.2v1.3h-5.9v3.4h4.7v1.3h-4.7v3.4H136.1z"/>
	<path class="st2" d="M144.9,24.7v7.1h-1.2l-0.1-1.1h0c-0.4,0.8-1.4,1.3-2.5,1.3c-2,0-3.5-1.6-3.5-3.7c0-2.1,1.6-3.7,3.5-3.7   c1.1,0,2.1,0.5,2.5,1.3h0l0.1-1.1H144.9z M143.6,28.2c0-1.4-0.9-2.5-2.4-2.5c-1.4,0-2.4,1.1-2.4,2.5c0,1.4,0.9,2.5,2.4,2.5   C142.6,30.7,143.6,29.7,143.6,28.2z"/>
	<path class="st2" d="M151.5,24.7v1.2c-0.2,0-0.4-0.1-0.7-0.1c-1.4,0-2.3,0.9-2.3,2.9v3.1h-1.3v-7.1h1.2l0.1,1.4h0   c0.4-1,1.3-1.5,2.3-1.5C151.1,24.6,151.3,24.6,151.5,24.7z"/>
	<path class="st2" d="M158.2,30.4v1.2c-0.5,0.3-1,0.4-1.6,0.4c-1.6,0-2.5-0.8-2.5-2.6v-3.5h-1.7v-1.1h1.7v-2h1.3v2h2.8v1.1h-2.8v3.4   c0,1.1,0.5,1.5,1.5,1.5C157.3,30.7,157.8,30.7,158.2,30.4z"/>
	<path class="st2" d="M166.5,27.5v4.3h-1.3v-4c0-1.4-0.7-2.1-1.8-2.1c-1.3,0-2.2,0.8-2.2,2.1v3.9h-1.3V21.1h1.3v4.7h0.1   c0.4-0.8,1.3-1.3,2.4-1.3C165.5,24.5,166.5,25.6,166.5,27.5z"/>
</g>
</svg>