<svg xmlns="http://www.w3.org/2000/svg" xmlns:xlink="http://www.w3.org/1999/xlink" version="1.1" id="Layer_1" x="0px" y="0px" viewBox="0 0 262 64" style="enable-background:new 0 0 262 64;" xml:space="preserve" width="262"  height="64" >
<style type="text/css">
	.st0{clip-path:url(#SVGID_00000034778336438102431700000005542121418548148632_);}
	.st1{fill:#015404;}
	.st2{display:none;fill:#015404;}
	.st3{fill:#015404;stroke:#015404;stroke-miterlimit:10;}
</style>
<g>
	<defs>
		<rect id="SVGID_1_" width="45" height="64"/>
	</defs>
	<clipPath id="SVGID_00000039834194575182786800000000500715048908549548_">
		<use xlink:href="#SVGID_1_" style="overflow:visible;"/>
	</clipPath>
	<g style="clip-path:url(#SVGID_00000039834194575182786800000000500715048908549548_);">
		<path class="st1" d="M23.1,12.3C22.7,1.6,37.6,3.2,43.9,7.2c2.8,2-2.7,2-3.5,3.3c-1.8,1.7-2.8,4-4.7,5.6    c-4.8,4.6-6.4,2.1-11.1,1.5c-2.2,3.7,7,3.6,9.7,5.8c0.6,0.5,1.1,0.9,1.7,1.3C54.5,38,42.1,66.9,19.6,63.8    c-24.9-3-26.6-37.5-2-42.9c1-0.4,2.9-0.6,3.3-1.5c-0.2-1.9-0.6-4.2-1.8-5.6c-2.4,0.7-5,1.4-7.5,0.4C6.9,12.1,6.1,5.8,1.2,4    c-1.9-1.6,2.3-2.3,3.6-2.8C5,1.1,5.2,1,5.4,1C9.8-0.6,15.1-0.4,19,2.3c3.4,2,3.2,6.6,1.7,9.7C21.8,14.8,23.6,16.8,23.1,12.3z     M2.7,43.1c-0.2,3.1,0.7,6.1,2.3,8.7c0.1,0.2,0.3,0.4,0.5,0.5c0.2,0.1,0.5,0.2,0.7,0.2c0.3,0,0.5,0,0.7-0.1    c0.2-0.1,0.4-0.3,0.6-0.5c1.6-2,4-5.5,9-1.8c3.5,3.5,1.3,6.6,5.7,7.9c1.3,0.4,2.6,1,3.8,1.6c6.8,3.8,20.1-13.4,12.7-11    c-2,0.9-1.1,4-2.9,5.2c-3.2,3.1-7.5,1-8.7-2.7c-0.2-0.6-0.6-1.2-1-1.8s-1-0.9-1.6-1.2c-2.7-1.3-5.9-2.2-4.6-6.3    c1-3.3,4.1-3.2,6.8-3.5c2.2-0.2,4-2,4.2-4.3c0.5-7.5,6.3-6,3.2-8.2c-0.3-0.2-0.7-0.4-1-0.6c-5-2.6-12.2-4.3-17.2-1.5    c-0.3,0.2-0.6,0.5-0.7,0.9c-0.1,0.4-0.1,0.8,0.1,1.1c1.4,2.7,6.5,0.6,8.6,2.8c4.2,3.3,0.4,8.4-4.1,7.9c-6.6-1.3-4.1,6.5-9.3,7.8    c-6.6,2.1-7.5-10.3-7.5-2.9C2.7,42.2,2.7,42.7,2.7,43.1z M26.3,41.1c-2.6-0.4-5.7,2.1-3,4.3c1.6,0.7,3.5,0.8,4.8,2    c1.3,1.3,1.5,3,2.1,4.6c3.5,3.9,4.6-2.1,6.1-4.3c1.1-1.3,2.8-1.7,4.4-1.9c4.3-1.4,1.3-8.2,0.3-11.3c-0.6-3.5-5.9-7.1-7-2.6    c-0.1,0.4-0.1,0.8-0.1,1.2c0.2,4.3-2.2,8.2-6.7,8C26.8,41.1,26.5,41.1,26.3,41.1z M19.7,34.1c1.9,0.2,3.5-0.9,3-2.4    c-0.2-0.7-0.8-1.2-1.6-1.3c-0.6-0.1-1.3-0.1-2-0.2c-1.3,0-2.5-0.4-3.6-0.9s-2.1-1.4-2.9-2.4c-1.4-1.8-1.4-1-4.6,1.7    c-0.8,1-2,2.1-2.9,3.4c-0.5,0.7-0.8,1.5-0.8,2.4c0,0.8,0.2,1.7,0.6,2.4c1.4,2.5,1.5,6.4,5.3,5.2C13.9,37.2,11.7,34.5,19.7,34.1z     M33.2,6.4c-6.3-1-11.5,8.4-5.1,5.8c1.3,1.2-3.5,2.2,0.2,3.8c3.7,1.5,6.9-2.2,8.6-5.1C41.1,6.9,36.7,6.7,33.2,6.4z M10.6,2.5    C8,2.4,4.9,3,7.5,5.9c1.7,2.9,4.3,7.5,8.3,6.3c2.7-0.9,1.1-2,0.4-3.6c1.2-0.4,3.1,3.1,3.2-1.5C18.5,3.2,14,2.6,10.6,2.5L10.6,2.5z     M21.4,61.5c5.6-0.3-3.1-1.5-4-3.6c0-0.1-0.1-0.2-0.1-0.3c-1.6-3.1-1.4-7.7-6.4-5.9C4.4,57.7,16.8,61.3,21.4,61.5z"/>
	</g>
</g>
<path class="st2" d="M77,28.6c-0.1-0.7-0.4-1.2-0.9-1.6c-0.5-0.4-1.2-0.6-2.1-0.6c-0.6,0-1.1,0.1-1.5,0.3c-0.4,0.2-0.7,0.4-1,0.7  c-0.2,0.3-0.3,0.6-0.3,1c0,0.3,0.1,0.6,0.2,0.8c0.1,0.2,0.3,0.4,0.6,0.6c0.3,0.2,0.6,0.3,0.9,0.4c0.3,0.1,0.7,0.2,1.1,0.3l1.6,0.4  c0.8,0.2,1.5,0.4,2.1,0.7s1.2,0.6,1.7,1c0.5,0.4,0.8,0.9,1.1,1.5c0.3,0.6,0.4,1.2,0.4,1.9c0,1.1-0.3,2-0.8,2.8  c-0.5,0.8-1.3,1.4-2.3,1.8c-1,0.4-2.2,0.6-3.6,0.6c-1.4,0-2.6-0.2-3.7-0.6c-1-0.4-1.9-1.1-2.4-1.9c-0.6-0.9-0.9-1.9-0.9-3.2h3.6  c0,0.6,0.2,1.1,0.5,1.5c0.3,0.4,0.7,0.7,1.2,0.9c0.5,0.2,1.1,0.3,1.7,0.3c0.6,0,1.2-0.1,1.6-0.3c0.5-0.2,0.8-0.4,1.1-0.8  c0.3-0.3,0.4-0.7,0.4-1.1c0-0.4-0.1-0.7-0.3-1c-0.2-0.3-0.6-0.5-1-0.7c-0.4-0.2-1-0.4-1.6-0.5l-1.9-0.5c-1.5-0.4-2.6-0.9-3.5-1.7  c-0.9-0.8-1.3-1.8-1.3-3.1c0-1.1,0.3-2,0.8-2.8c0.6-0.8,1.4-1.4,2.4-1.8c1-0.4,2.1-0.7,3.4-0.7c1.3,0,2.4,0.2,3.4,0.7  c1,0.4,1.7,1.1,2.3,1.8c0.5,0.8,0.8,1.7,0.8,2.7H77z M86.9,41.2c-0.8,0-1.6-0.1-2.2-0.4c-0.7-0.3-1.2-0.7-1.6-1.3  c-0.4-0.6-0.6-1.3-0.6-2.2c0-0.7,0.1-1.3,0.4-1.8c0.3-0.5,0.6-0.9,1.1-1.2c0.5-0.3,1-0.5,1.6-0.7c0.6-0.2,1.2-0.3,1.9-0.3  c0.8-0.1,1.4-0.2,1.8-0.2c0.5-0.1,0.8-0.2,1-0.3c0.2-0.1,0.3-0.4,0.3-0.6v-0.1c0-0.5-0.2-1-0.5-1.3c-0.3-0.3-0.8-0.4-1.4-0.4  c-0.7,0-1.2,0.1-1.6,0.4c-0.4,0.3-0.6,0.6-0.8,1.1L83,31.6c0.2-0.8,0.5-1.5,1-2.1c0.5-0.6,1.1-1,1.9-1.3c0.8-0.3,1.7-0.5,2.8-0.5  c0.7,0,1.4,0.1,2.1,0.3c0.7,0.2,1.3,0.4,1.8,0.8c0.5,0.4,0.9,0.8,1.2,1.4c0.3,0.6,0.5,1.2,0.5,2V41h-3.4v-1.8h-0.1  c-0.2,0.4-0.5,0.8-0.8,1.1c-0.4,0.3-0.8,0.5-1.3,0.7C88.1,41.2,87.6,41.2,86.9,41.2z M87.9,38.7c0.5,0,1-0.1,1.4-0.3  c0.4-0.2,0.7-0.5,1-0.9c0.2-0.4,0.3-0.8,0.3-1.2v-1.4c-0.1,0.1-0.3,0.1-0.5,0.2c-0.2,0.1-0.4,0.1-0.7,0.2c-0.2,0-0.5,0.1-0.7,0.1  c-0.2,0-0.5,0.1-0.7,0.1c-0.4,0.1-0.8,0.2-1.1,0.3c-0.3,0.1-0.6,0.3-0.7,0.6c-0.2,0.2-0.3,0.5-0.3,0.9c0,0.5,0.2,0.9,0.5,1.1  C86.9,38.6,87.4,38.7,87.9,38.7z M108.8,27.9L104.3,41h-4.1l-4.6-13.1h3.8l2.7,9.4h0.1l2.7-9.4H108.8z M116.2,41.3  c-1.3,0-2.5-0.3-3.5-0.8c-1-0.6-1.7-1.3-2.2-2.3c-0.5-1-0.8-2.2-0.8-3.6c0-1.3,0.3-2.5,0.8-3.5c0.5-1,1.3-1.8,2.2-2.4  c1-0.6,2.1-0.9,3.4-0.9c0.9,0,1.7,0.1,2.4,0.4c0.8,0.3,1.4,0.7,2,1.2c0.6,0.6,1,1.2,1.3,2.1c0.3,0.8,0.5,1.8,0.5,2.9v1h-11.1v-2.2  h7.6c0-0.5-0.1-1-0.3-1.4s-0.5-0.7-0.9-0.9c-0.4-0.2-0.9-0.3-1.4-0.3c-0.6,0-1,0.1-1.5,0.4c-0.4,0.2-0.8,0.6-1,1  c-0.2,0.4-0.4,0.9-0.4,1.4v2.1c0,0.6,0.1,1.2,0.4,1.7c0.2,0.5,0.6,0.8,1,1.1s1,0.4,1.6,0.4c0.4,0,0.8-0.1,1.1-0.2  c0.3-0.1,0.6-0.3,0.9-0.5c0.2-0.2,0.4-0.5,0.5-0.8l3.4,0.2c-0.2,0.8-0.5,1.5-1,2.1c-0.5,0.6-1.2,1.1-2,1.4  C118.3,41.1,117.3,41.3,116.2,41.3z M124.7,41V23.5h6.9c1.3,0,2.5,0.3,3.4,0.8c0.9,0.5,1.6,1.2,2.1,2.1c0.5,0.9,0.7,1.9,0.7,3.1  c0,1.2-0.2,2.2-0.8,3.1c-0.5,0.9-1.2,1.6-2.2,2.1c-0.9,0.5-2.1,0.7-3.4,0.7h-4.4v-3h3.8c0.7,0,1.3-0.1,1.8-0.4c0.5-0.2,0.8-0.6,1-1  c0.2-0.4,0.3-1,0.3-1.5c0-0.6-0.1-1.1-0.3-1.5c-0.2-0.4-0.6-0.8-1-1c-0.5-0.2-1.1-0.4-1.8-0.4h-2.5V41H124.7z M143.8,23.5V41h-3.6  V23.5H143.8z M150.4,41.2c-0.8,0-1.6-0.1-2.2-0.4c-0.7-0.3-1.2-0.7-1.6-1.3c-0.4-0.6-0.6-1.3-0.6-2.2c0-0.7,0.1-1.3,0.4-1.8  c0.3-0.5,0.6-0.9,1.1-1.2c0.5-0.3,1-0.5,1.6-0.7c0.6-0.2,1.2-0.3,1.9-0.3c0.8-0.1,1.4-0.2,1.8-0.2c0.5-0.1,0.8-0.2,1-0.3  c0.2-0.1,0.3-0.4,0.3-0.6v-0.1c0-0.5-0.2-1-0.5-1.3c-0.3-0.3-0.8-0.4-1.4-0.4c-0.7,0-1.2,0.1-1.6,0.4c-0.4,0.3-0.6,0.6-0.8,1.1  l-3.4-0.3c0.2-0.8,0.5-1.5,1-2.1c0.5-0.6,1.1-1,1.9-1.3c0.8-0.3,1.7-0.5,2.8-0.5c0.7,0,1.4,0.1,2.1,0.3c0.7,0.2,1.3,0.4,1.8,0.8  c0.5,0.4,0.9,0.8,1.2,1.4c0.3,0.6,0.5,1.2,0.5,2V41h-3.4v-1.8h-0.1c-0.2,0.4-0.5,0.8-0.8,1.1c-0.4,0.3-0.8,0.5-1.3,0.7  C151.6,41.2,151.1,41.2,150.4,41.2z M151.5,38.7c0.5,0,1-0.1,1.4-0.3c0.4-0.2,0.7-0.5,1-0.9c0.2-0.4,0.3-0.8,0.3-1.2v-1.4  c-0.1,0.1-0.3,0.1-0.5,0.2c-0.2,0.1-0.4,0.1-0.7,0.2c-0.2,0-0.5,0.1-0.7,0.1c-0.2,0-0.5,0.1-0.7,0.1c-0.4,0.1-0.8,0.2-1.1,0.3  c-0.3,0.1-0.6,0.3-0.7,0.6c-0.2,0.2-0.3,0.5-0.3,0.9c0,0.5,0.2,0.9,0.5,1.1C150.4,38.6,150.9,38.7,151.5,38.7z M164.2,33.4V41h-3.6  V27.9h3.5v2.3h0.2c0.3-0.8,0.8-1.4,1.5-1.8c0.7-0.4,1.5-0.7,2.5-0.7c0.9,0,1.7,0.2,2.4,0.6c0.7,0.4,1.2,1,1.6,1.7  c0.4,0.7,0.6,1.6,0.6,2.6V41h-3.6v-7.7c0-0.8-0.2-1.4-0.6-1.9c-0.4-0.5-1-0.7-1.7-0.7c-0.5,0-0.9,0.1-1.3,0.3  c-0.4,0.2-0.7,0.5-0.9,0.9C164.4,32.4,164.2,32.9,164.2,33.4z M181.5,41.3c-1.3,0-2.5-0.3-3.5-0.8c-1-0.6-1.7-1.3-2.2-2.3  c-0.5-1-0.8-2.2-0.8-3.6c0-1.3,0.3-2.5,0.8-3.5c0.5-1,1.3-1.8,2.2-2.4c1-0.6,2.1-0.9,3.4-0.9c0.9,0,1.7,0.1,2.4,0.4  c0.8,0.3,1.4,0.7,2,1.2c0.6,0.6,1,1.2,1.3,2.1c0.3,0.8,0.5,1.8,0.5,2.9v1h-11.1v-2.2h7.6c0-0.5-0.1-1-0.3-1.4  c-0.2-0.4-0.5-0.7-0.9-0.9c-0.4-0.2-0.9-0.3-1.4-0.3c-0.6,0-1,0.1-1.5,0.4c-0.4,0.2-0.8,0.6-1,1c-0.2,0.4-0.4,0.9-0.4,1.4v2.1  c0,0.6,0.1,1.2,0.4,1.7c0.2,0.5,0.6,0.8,1,1.1c0.4,0.3,1,0.4,1.6,0.4c0.4,0,0.8-0.1,1.1-0.2c0.3-0.1,0.6-0.3,0.9-0.5  c0.2-0.2,0.4-0.5,0.5-0.8l3.4,0.2c-0.2,0.8-0.5,1.5-1,2.1c-0.5,0.6-1.2,1.1-2,1.4C183.5,41.1,182.6,41.3,181.5,41.3z M196.8,27.9  v2.7H189v-2.7H196.8z M190.8,24.8h3.6V37c0,0.3,0.1,0.6,0.2,0.8c0.1,0.2,0.2,0.3,0.4,0.4c0.2,0.1,0.4,0.1,0.6,0.1c0.2,0,0.3,0,0.5,0  c0.2,0,0.3-0.1,0.4-0.1l0.6,2.7c-0.2,0.1-0.4,0.1-0.8,0.2c-0.3,0.1-0.7,0.1-1.2,0.1c-0.9,0-1.6-0.1-2.3-0.3  c-0.7-0.3-1.2-0.7-1.5-1.2c-0.4-0.6-0.5-1.3-0.5-2.1V24.8z M199.6,41V23.5h11.8v3h-8.1v4.2h7.5v3h-7.5V38h8.1v3H199.6z M217.9,41.2  c-0.8,0-1.6-0.1-2.2-0.4c-0.7-0.3-1.2-0.7-1.6-1.3c-0.4-0.6-0.6-1.3-0.6-2.2c0-0.7,0.1-1.3,0.4-1.8c0.3-0.5,0.6-0.9,1.1-1.2  c0.5-0.3,1-0.5,1.6-0.7c0.6-0.2,1.2-0.3,1.9-0.3c0.8-0.1,1.4-0.2,1.8-0.2c0.5-0.1,0.8-0.2,1-0.3c0.2-0.1,0.3-0.4,0.3-0.6v-0.1  c0-0.5-0.2-1-0.5-1.3c-0.3-0.3-0.8-0.4-1.4-0.4c-0.7,0-1.2,0.1-1.6,0.4c-0.4,0.3-0.6,0.6-0.8,1.1l-3.4-0.3c0.2-0.8,0.5-1.5,1-2.1  c0.5-0.6,1.1-1,1.9-1.3c0.8-0.3,1.7-0.5,2.8-0.5c0.7,0,1.4,0.1,2.1,0.3c0.7,0.2,1.3,0.4,1.8,0.8c0.5,0.4,0.9,0.8,1.2,1.4  c0.3,0.6,0.5,1.2,0.5,2V41h-3.4v-1.8h-0.1c-0.2,0.4-0.5,0.8-0.8,1.1c-0.4,0.3-0.8,0.5-1.3,0.7C219.1,41.2,218.6,41.2,217.9,41.2z   M219,38.7c0.5,0,1-0.1,1.4-0.3c0.4-0.2,0.7-0.5,1-0.9c0.2-0.4,0.3-0.8,0.3-1.2v-1.4c-0.1,0.1-0.3,0.1-0.5,0.2  c-0.2,0.1-0.4,0.1-0.7,0.2c-0.2,0-0.5,0.1-0.7,0.1c-0.2,0-0.5,0.1-0.7,0.1c-0.4,0.1-0.8,0.2-1.1,0.3c-0.3,0.1-0.6,0.3-0.7,0.6  c-0.2,0.2-0.3,0.5-0.3,0.9c0,0.5,0.2,0.9,0.5,1.1C217.9,38.6,218.4,38.7,219,38.7z M228.1,41V27.9h3.5v2.3h0.1  c0.2-0.8,0.6-1.4,1.2-1.8c0.6-0.4,1.2-0.6,1.9-0.6c0.2,0,0.4,0,0.6,0c0.2,0,0.4,0.1,0.6,0.1v3.2c-0.2-0.1-0.4-0.1-0.7-0.1  c-0.3,0-0.6-0.1-0.8-0.1c-0.5,0-1,0.1-1.4,0.3c-0.4,0.2-0.7,0.5-1,1c-0.2,0.4-0.4,0.9-0.4,1.4V41H228.1z M245.6,27.9v2.7h-7.9v-2.7  H245.6z M239.5,24.8h3.6V37c0,0.3,0.1,0.6,0.2,0.8c0.1,0.2,0.2,0.3,0.4,0.4c0.2,0.1,0.4,0.1,0.6,0.1c0.2,0,0.3,0,0.5,0  c0.2,0,0.3-0.1,0.4-0.1l0.6,2.7c-0.2,0.1-0.4,0.1-0.8,0.2c-0.3,0.1-0.7,0.1-1.2,0.1c-0.9,0-1.6-0.1-2.3-0.3  c-0.7-0.3-1.2-0.7-1.5-1.2c-0.4-0.6-0.5-1.3-0.5-2.1V24.8z M251.8,33.4V41h-3.6V23.5h3.5v6.7h0.2c0.3-0.8,0.8-1.4,1.4-1.8  c0.7-0.4,1.5-0.7,2.5-0.7c0.9,0,1.7,0.2,2.4,0.6c0.7,0.4,1.2,1,1.6,1.7c0.4,0.7,0.6,1.6,0.6,2.6V41h-3.6v-7.7c0-0.8-0.2-1.4-0.6-1.9  c-0.4-0.4-1-0.7-1.7-0.7c-0.5,0-0.9,0.1-1.3,0.3c-0.4,0.2-0.7,0.5-0.9,0.9C251.9,32.4,251.8,32.9,251.8,33.4z"/>
<g>
	<path class="st3" d="M60,42.8h2.3c0.2,2.1,1.8,3.1,4.3,3.1c2.6,0,4.1-1.2,4.1-2.9c0-1.3-0.7-2.3-3-2.8l-2.6-0.5   c-3.6-0.6-4.9-2.4-4.9-4.8c0-3,2.1-4.9,6.2-4.9c4,0,6.2,1.8,6.4,5.4h-2.3c-0.1-2.4-1.5-3.3-4.2-3.3c-2.7,0-3.9,1-3.9,2.8   c0,1.5,0.8,2.3,3.5,2.9l2.6,0.5c3.2,0.6,4.4,2.2,4.4,4.6c0,3.2-2.4,5.1-6.4,5.1C62.8,48,60.3,46.1,60,42.8z"/>
	<path class="st3" d="M87.8,36.1v11.6h-1.9l-0.1-1.9h-0.1C85,47.2,83.3,48,81.5,48c-3.2,0-5.8-2.6-5.8-6.1c0-3.4,2.6-6.1,5.8-6.1   c1.8,0,3.4,0.8,4.1,2.1h0.1l0.1-1.8H87.8z M85.7,41.9c0-2.3-1.5-4.1-3.9-4.1c-2.4,0-3.9,1.8-3.9,4.1c0,2.3,1.5,4.1,3.9,4.1   C84.2,46.1,85.7,44.3,85.7,41.9z"/>
	<path class="st3" d="M90.3,36.1h2.3l3.8,9h0.1l3.8-9h2.2l-5.2,11.6h-1.9L90.3,36.1z"/>
	<path class="st3" d="M115.6,42.7H106c0.2,2.3,1.7,3.5,3.9,3.5c1.8,0,3.1-0.8,3.4-2h2.1c-0.4,2.1-2.5,3.8-5.5,3.8   c-3.7,0-6.1-2.5-6.1-6.1c0-3.5,2.4-6.1,6-6.1c3.5,0,5.8,2.4,5.8,6C115.6,42.2,115.6,42.4,115.6,42.7z M106,41h7.4   c-0.3-2.2-1.6-3.3-3.7-3.3C107.7,37.7,106.3,38.8,106,41z"/>
	<path class="st3" d="M132.4,36c0,3.6-2.3,5.7-6.3,5.7h-4.6v6h-2.3V30.3h6.9C130.1,30.3,132.4,32.4,132.4,36z M130,36   c0-2.4-1.3-3.6-4.1-3.6h-4.4v7.3h4.4C128.7,39.6,130,38.4,130,36z"/>
	<path class="st3" d="M135.4,30.3h2.1v17.5h-2.1V30.3z"/>
	<path class="st3" d="M152.9,36.1v11.6h-1.9l-0.2-1.9h-0.1c-0.7,1.4-2.3,2.1-4.1,2.1c-3.2,0-5.8-2.6-5.8-6.1c0-3.4,2.6-6.1,5.8-6.1   c1.8,0,3.4,0.8,4.1,2.1h0.1l0.2-1.8H152.9z M150.8,41.9c0-2.3-1.5-4.1-3.9-4.1c-2.4,0-3.9,1.8-3.9,4.1c0,2.3,1.5,4.1,3.9,4.1   C149.2,46.1,150.8,44.3,150.8,41.9z"/>
	<path class="st3" d="M167.7,40.8v7h-2.1v-6.5c0-2.3-1.1-3.4-3-3.4c-2.1,0-3.5,1.3-3.5,3.5v6.4h-2.1V36.1h2l0.1,1.9h0.1   c0.6-1.3,2.1-2.1,4.1-2.1C165.9,35.9,167.7,37.7,167.7,40.8z"/>
	<path class="st3" d="M182.4,42.7h-9.6c0.2,2.3,1.7,3.5,3.9,3.5c1.8,0,3.1-0.8,3.4-2h2.1c-0.4,2.1-2.5,3.8-5.5,3.8   c-3.7,0-6.1-2.5-6.1-6.1c0-3.5,2.4-6.1,6-6.1c3.5,0,5.8,2.4,5.8,6C182.5,42.2,182.5,42.4,182.4,42.7z M172.9,41h7.4   c-0.3-2.2-1.6-3.3-3.7-3.3C174.5,37.7,173.2,38.8,172.9,41z"/>
	<path class="st3" d="M193.6,45.5v1.9c-0.8,0.4-1.7,0.6-2.7,0.6c-2.7,0-4.2-1.3-4.2-4.3V38H184v-1.8h2.7v-3.3h2.1v3.3h4.6V38h-4.6   v5.6c0,1.8,0.8,2.5,2.4,2.5C192.1,46.1,192.8,45.9,193.6,45.5z"/>
	<path class="st3" d="M208.8,45.6v2.1h-12V30.3h11.9v2.1H199V38h7.7V40H199v5.6H208.8z"/>
	<path class="st3" d="M223.2,36.1v11.6h-1.9l-0.2-1.9h-0.1c-0.7,1.4-2.3,2.1-4.1,2.1c-3.2,0-5.8-2.6-5.8-6.1c0-3.4,2.6-6.1,5.8-6.1   c1.8,0,3.4,0.8,4.1,2.1h0.1l0.2-1.8H223.2z M221.1,41.9c0-2.3-1.5-4.1-3.9-4.1c-2.4,0-3.9,1.8-3.9,4.1c0,2.3,1.5,4.1,3.9,4.1   C219.6,46.1,221.1,44.3,221.1,41.9z"/>
	<path class="st3" d="M234.2,36.1V38c-0.3,0-0.7-0.1-1.2-0.1c-2.3,0-3.7,1.4-3.7,4.7v5.1h-2.1V36.1h2l0.1,2.3h0   c0.7-1.6,2.1-2.5,3.8-2.5C233.5,35.9,233.8,36,234.2,36.1z"/>
	<path class="st3" d="M245.2,45.5v1.9c-0.8,0.4-1.7,0.6-2.7,0.6c-2.7,0-4.2-1.3-4.2-4.3V38h-2.7v-1.8h2.7v-3.3h2.1v3.3h4.6V38h-4.6   v5.6c0,1.8,0.8,2.5,2.4,2.5C243.7,46.1,244.4,45.9,245.2,45.5z"/>
	<path class="st3" d="M258.9,40.8v7h-2.1v-6.5c0-2.3-1.1-3.4-3-3.4c-2.2,0-3.6,1.3-3.6,3.5v6.4H248V30.3h2.1V38h0.1   c0.6-1.3,2.1-2.1,4-2.1C257.1,35.9,258.9,37.7,258.9,40.8z"/>
</g>
</svg>