<svg xmlns:xlink="http://www.w3.org/1999/xlink" xmlns="http://www.w3.org/2000/svg" width="53" height="52" viewBox="0 0 53 52" fill="none">
<rect x="0.5" width="52" height="52" rx="26" fill="#015404"/>
<g clip-path="url(#clip0_1_2906)">
<path d="M36.8139 24.4636C36.722 21.8458 35.6619 19.3978 33.8004 17.5363C31.8492 15.5848 29.2561 14.5104 26.4991 14.5104C20.9307 14.5104 16.3809 18.9425 16.1847 24.4636C15.335 24.8413 14.7402 25.6917 14.7402 26.6802V29.4035C14.7402 30.7407 15.8281 31.829 17.1657 31.829C18.0312 31.829 18.7351 31.1251 18.7351 30.2596V25.8238C18.7351 25.0111 18.1119 24.3485 17.3195 24.2697C17.612 19.4596 21.6162 15.6354 26.4991 15.6354C28.9561 15.6354 31.2665 16.5931 33.0054 18.332C34.6021 19.9288 35.5366 22.01 35.6772 24.2701C34.8856 24.3496 34.2635 25.0119 34.2635 25.8238V30.2593C34.2635 31.0786 34.8965 31.7454 35.6982 31.8148V32.9356C35.6982 34.1979 34.6711 35.2246 33.4089 35.2246H31.7135C31.6302 34.9869 31.4997 34.7671 31.3167 34.5849C30.9961 34.2628 30.5686 34.0854 30.1134 34.0854H28.3659C28.115 34.0854 27.8742 34.1386 27.6537 34.2414C27.0522 34.5177 26.6637 35.1245 26.6637 35.7871C26.6637 36.2424 26.8411 36.6699 27.1625 36.9897C27.4839 37.3119 27.9114 37.4893 28.3659 37.4893H30.1134C30.8379 37.4893 31.4765 37.0209 31.7146 36.3496H33.4089C35.2917 36.3496 36.8232 34.8181 36.8232 32.9356V31.6145C37.6677 31.2346 38.258 30.3871 38.258 29.4028V26.6795C38.258 25.6918 37.6632 24.8413 36.8139 24.4636ZM17.6097 25.8238V30.2593C17.6097 30.5041 17.4106 30.7036 17.1654 30.7036C16.4484 30.7036 15.8649 30.1201 15.8649 29.4031V26.6799C15.8649 25.9625 16.4484 25.3794 17.1654 25.3794C17.4106 25.3794 17.6097 25.5789 17.6097 25.8238ZM30.6777 35.9079C30.6219 36.1726 30.3841 36.365 30.113 36.365H28.3655C28.2117 36.365 28.0674 36.305 27.9571 36.1947C27.8484 36.0864 27.7884 35.9416 27.7884 35.7879C27.7884 35.5632 27.92 35.3581 28.1262 35.2632C28.1997 35.2287 28.2804 35.2111 28.3655 35.2111H30.113C30.2667 35.2111 30.4111 35.2707 30.521 35.381C30.6297 35.4894 30.6897 35.6341 30.6897 35.7879C30.6901 35.8291 30.6856 35.8704 30.6777 35.9079ZM37.133 29.4031C37.133 30.1201 36.5495 30.7036 35.8325 30.7036C35.5876 30.7036 35.3881 30.5045 35.3881 30.2593V25.8238C35.3881 25.5789 35.5872 25.3794 35.8325 25.3794C36.5495 25.3794 37.133 25.9629 37.133 26.6799V29.4031Z" fill="white"/>
<path d="M30.1409 29.597C31.4553 29.597 32.5244 28.5275 32.5244 27.2135V22.3569C32.5244 21.7216 32.2762 21.1231 31.8254 20.6724C31.3747 20.2216 30.7765 19.9734 30.1409 19.9734H22.8562C21.5418 19.9734 20.4727 21.0425 20.4727 22.3569V27.2135C20.4727 28.5279 21.5418 29.597 22.8562 29.597H22.9008V30.8555C22.9008 31.3355 23.1869 31.7615 23.6294 31.9411C23.7723 31.9985 23.9208 32.027 24.0678 32.027C24.3742 32.027 24.6727 31.9055 24.8913 31.6794L26.9849 29.597H30.1409ZM26.3568 28.6355L24.091 30.8889C24.0809 30.8994 24.0734 30.9073 24.052 30.8979C24.0262 30.8874 24.0262 30.8705 24.0262 30.8555V29.0345C24.0262 28.724 23.7745 28.472 23.4637 28.472H22.8565C22.1624 28.472 21.598 27.9073 21.598 27.2135V22.3569C21.598 21.6628 22.1624 21.0984 22.8565 21.0984H30.1413C30.4765 21.0984 30.7919 21.2296 31.0304 21.4678C31.2689 21.7063 31.3998 22.022 31.3998 22.3569V27.2135C31.3998 27.9076 30.835 28.472 30.1413 28.472H26.7535C26.6047 28.472 26.4622 28.5309 26.3568 28.6355Z" fill="#FFBE2B"/>
<path d="M23.7674 24.0452C23.3099 24.0452 22.9375 24.4179 22.9375 24.875C22.9375 25.3322 23.3102 25.7049 23.7674 25.7049C24.2252 25.7049 24.598 25.3322 24.598 24.875C24.598 24.4179 24.2256 24.0452 23.7674 24.0452Z" fill="#FFBE2B"/>
<path d="M26.4978 24.0452C26.0403 24.0452 25.668 24.4179 25.668 24.875C25.668 25.3322 26.0407 25.7049 26.4978 25.7049C26.9561 25.7049 27.3285 25.3322 27.3285 24.875C27.3285 24.4179 26.9561 24.0452 26.4978 24.0452Z" fill="#FFBE2B"/>
<path d="M29.2303 24.0452C28.7728 24.0452 28.4004 24.4179 28.4004 24.875C28.4004 25.3322 28.7731 25.7049 29.2303 25.7049C29.6881 25.7049 30.0609 25.3322 30.0609 24.875C30.0609 24.4179 29.6881 24.0452 29.2303 24.0452Z" fill="#FFBE2B"/>
</g>
<defs>
<clipPath id="clip0_1_2906">
<rect width="24" height="24" fill="white" transform="translate(14.5 14)"/>
</clipPath>
</defs>
</svg>