<svg xmlns:xlink="http://www.w3.org/1999/xlink" xmlns="http://www.w3.org/2000/svg" width="53" height="52" viewBox="0 0 53 52" fill="none">
<rect x="0.800781" width="52" height="52" rx="26" fill="#015404"/>
<g filter="url(#filter0_d_1_2948)">
<path d="M32.3308 21.77C32.2608 21.76 32.1908 21.76 32.1208 21.77C30.5708 21.72 29.3408 20.45 29.3408 18.89C29.3408 17.3 30.6308 16 32.2308 16C33.8208 16 35.1208 17.29 35.1208 18.89C35.1108 20.45 33.8808 21.72 32.3308 21.77Z" fill="white"/>
<path d="M35.5904 28.7C34.4704 29.45 32.9004 29.73 31.4504 29.54C31.8304 28.72 32.0304 27.81 32.0404 26.85C32.0404 25.85 31.8204 24.9 31.4004 24.07C32.8804 23.87 34.4504 24.15 35.5804 24.9C37.1604 25.94 37.1604 27.65 35.5904 28.7Z" fill="white"/>
<path d="M21.4709 21.2688C21.3877 21.2604 21.3042 21.2604 21.221 21.2688C19.9587 21.2092 18.9609 20.1689 18.9609 18.89C18.9609 17.565 20.0282 16.5 21.3409 16.5C22.6648 16.5 23.7309 17.5661 23.7309 18.89C23.7309 20.1689 22.7332 21.2092 21.4709 21.2688Z" fill="white" stroke="white"/>
<path d="M18.2576 25.3164L18.2576 25.3164L18.26 25.3148C19.0503 24.7831 20.1395 24.5015 21.2473 24.5072C20.9871 25.2382 20.8509 26.0274 20.8509 26.85C20.8509 27.6388 20.9801 28.3978 21.2202 29.1077C20.1282 29.1065 19.0606 28.8211 18.2566 28.2929C17.5706 27.8366 17.2959 27.288 17.2959 26.805C17.2959 26.3217 17.5708 25.7728 18.2576 25.3164Z" fill="white" stroke="white"/>
<path d="M26.9206 29.87C26.8406 29.86 26.7506 29.86 26.6606 29.87C24.8206 29.81 23.3506 28.3 23.3506 26.44C23.3606 24.54 24.8906 23 26.8006 23C28.7006 23 30.2406 24.54 30.2406 26.44C30.2306 28.3 28.7706 29.81 26.9206 29.87Z" fill="#FFBE2B"/>
<path d="M23.6706 31.94C22.1606 32.95 22.1606 34.61 23.6706 35.61C25.3906 36.76 28.2106 36.76 29.9306 35.61C31.4406 34.6 31.4406 32.94 29.9306 31.94C28.2206 30.79 25.4006 30.79 23.6706 31.94Z" fill="#FFBE2B"/>
</g>
<defs>
<filter id="filter0_d_1_2948" x="10.8008" y="14" width="32" height="32" filterUnits="userSpaceOnUse" color-interpolation-filters="sRGB">
<feFlood flood-opacity="0" result="BackgroundImageFix"/>
<feColorMatrix in="SourceAlpha" type="matrix" values="0 0 0 0 0 0 0 0 0 0 0 0 0 0 0 0 0 0 127 0" result="hardAlpha"/>
<feOffset dy="4"/>
<feGaussianBlur stdDeviation="2"/>
<feComposite in2="hardAlpha" operator="out"/>
<feColorMatrix type="matrix" values="0 0 0 0 0 0 0 0 0 0 0 0 0 0 0 0 0 0 0.25 0"/>
<feBlend mode="normal" in2="BackgroundImageFix" result="effect1_dropShadow_1_2948"/>
<feBlend mode="normal" in="SourceGraphic" in2="effect1_dropShadow_1_2948" result="shape"/>
</filter>
</defs>
</svg>