<svg xmlns:xlink="http://www.w3.org/1999/xlink" xmlns="http://www.w3.org/2000/svg" width="53" height="52" viewBox="0 0 53 52" fill="none">
<rect x="0.201172" width="52" height="52" rx="26" fill="#015404"/>
<g filter="url(#filter0_d_1_2936)">
<path d="M22.5908 32.49V22.33C22.5908 21.93 22.7108 21.54 22.9308 21.21L25.6608 17.15C26.0908 16.5 27.1608 16.04 28.0708 16.38C29.0508 16.71 29.7008 17.81 29.4908 18.79L28.9708 22.06C28.9308 22.36 29.0108 22.63 29.1808 22.84C29.3508 23.03 29.6008 23.15 29.8708 23.15H33.9808C34.7708 23.15 35.4508 23.47 35.8508 24.03C36.2308 24.57 36.3008 25.27 36.0508 25.98L33.5908 33.47C33.2808 34.71 31.9308 35.72 30.5908 35.72H26.6908C26.0208 35.72 25.0808 35.49 24.6508 35.06L23.3708 34.07C22.8808 33.7 22.5908 33.11 22.5908 32.49Z" fill="white"/>
<path d="M19.4112 20.38H18.3812C16.8312 20.38 16.2012 20.98 16.2012 22.46V32.52C16.2012 34 16.8312 34.6 18.3812 34.6H19.4112C20.9612 34.6 21.5912 34 21.5912 32.52V22.46C21.5912 20.98 20.9612 20.38 19.4112 20.38Z" fill="#FFBE2B"/>
</g>
<defs>
<filter id="filter0_d_1_2936" x="10.2012" y="14" width="32" height="32" filterUnits="userSpaceOnUse" color-interpolation-filters="sRGB">
<feFlood flood-opacity="0" result="BackgroundImageFix"/>
<feColorMatrix in="SourceAlpha" type="matrix" values="0 0 0 0 0 0 0 0 0 0 0 0 0 0 0 0 0 0 127 0" result="hardAlpha"/>
<feOffset dy="4"/>
<feGaussianBlur stdDeviation="2"/>
<feComposite in2="hardAlpha" operator="out"/>
<feColorMatrix type="matrix" values="0 0 0 0 0 0 0 0 0 0 0 0 0 0 0 0 0 0 0.25 0"/>
<feBlend mode="normal" in2="BackgroundImageFix" result="effect1_dropShadow_1_2936"/>
<feBlend mode="normal" in="SourceGraphic" in2="effect1_dropShadow_1_2936" result="shape"/>
</filter>
</defs>
</svg>