<svg xmlns:xlink="http://www.w3.org/1999/xlink" xmlns="http://www.w3.org/2000/svg" width="53" height="52" viewBox="0 0 53 52" fill="none">
<rect x="0.5" width="52" height="52" rx="26" fill="#015404"/>
<g filter="url(#filter0_d_1_2924)">
<path d="M23.5 16C20.88 16 18.75 18.13 18.75 20.75C18.75 23.32 20.76 25.4 23.38 25.49C23.46 25.48 23.54 25.48 23.6 25.49C23.62 25.49 23.63 25.49 23.65 25.49C23.66 25.49 23.66 25.49 23.67 25.49C26.23 25.4 28.24 23.32 28.25 20.75C28.25 18.13 26.12 16 23.5 16Z" fill="white"/>
<path d="M28.58 28.15C25.79 26.29 21.24 26.29 18.43 28.15C17.16 29 16.46 30.15 16.46 31.38C16.46 32.61 17.16 33.75 18.42 34.59C19.82 35.53 21.66 36 23.5 36C25.34 36 27.18 35.53 28.58 34.59C29.84 33.74 30.54 32.6 30.54 31.36C30.53 30.13 29.84 28.99 28.58 28.15Z" fill="white"/>
<path d="M34.4904 21.34C34.6504 23.28 33.2704 24.98 31.3604 25.21C31.3504 25.21 31.3504 25.21 31.3404 25.21H31.3104C31.2504 25.21 31.1904 25.21 31.1404 25.23C30.1704 25.28 29.2804 24.97 28.6104 24.4C29.6404 23.48 30.2304 22.1 30.1104 20.6C30.0404 19.79 29.7604 19.05 29.3404 18.42C29.7204 18.23 30.1604 18.11 30.6104 18.07C32.5704 17.9 34.3204 19.36 34.4904 21.34Z" fill="#FFBE2B"/>
<path d="M36.4902 30.59C36.4102 31.56 35.7902 32.4 34.7502 32.97C33.7502 33.52 32.4902 33.78 31.2402 33.75C31.9602 33.1 32.3802 32.29 32.4602 31.43C32.5602 30.19 31.9702 29 30.7902 28.05C30.1202 27.52 29.3402 27.1 28.4902 26.79C30.7002 26.15 33.4802 26.58 35.1902 27.96C36.1102 28.7 36.5802 29.63 36.4902 30.59Z" fill="#FFBE2B"/>
</g>
<defs>
<filter id="filter0_d_1_2924" x="10.5" y="14" width="32" height="32" filterUnits="userSpaceOnUse" color-interpolation-filters="sRGB">
<feFlood flood-opacity="0" result="BackgroundImageFix"/>
<feColorMatrix in="SourceAlpha" type="matrix" values="0 0 0 0 0 0 0 0 0 0 0 0 0 0 0 0 0 0 127 0" result="hardAlpha"/>
<feOffset dy="4"/>
<feGaussianBlur stdDeviation="2"/>
<feComposite in2="hardAlpha" operator="out"/>
<feColorMatrix type="matrix" values="0 0 0 0 0 0 0 0 0 0 0 0 0 0 0 0 0 0 0.25 0"/>
<feBlend mode="normal" in2="BackgroundImageFix" result="effect1_dropShadow_1_2924"/>
<feBlend mode="normal" in="SourceGraphic" in2="effect1_dropShadow_1_2924" result="shape"/>
</filter>
</defs>
</svg>