<svg xmlns:xlink="http://www.w3.org/1999/xlink" xmlns="http://www.w3.org/2000/svg" width="53" height="52" viewBox="0 0 53 52" fill="none">
<rect x="0.5" width="52" height="52" rx="26" fill="#015404"/>
<g filter="url(#filter0_d_1_2918)">
<path d="M30.6703 24.06H22.3303C21.1503 24.06 20.7403 23.27 21.4303 22.31L25.6003 16.47C26.0903 15.77 26.9103 15.77 27.4003 16.47L31.5703 22.31C32.2603 23.27 31.8503 24.06 30.6703 24.06Z" fill="#FFBE2B"/>
<path d="M32.0896 32H20.9096C19.3296 32 18.7896 30.95 19.7196 29.67L23.7096 24.06H29.2896L33.2796 29.67C34.2096 30.95 33.6696 32 32.0896 32Z" fill="white"/>
<path d="M26.75 32.5V36C26.75 36.1339 26.6339 36.25 26.5 36.25C26.3661 36.25 26.25 36.1339 26.25 36V32.5H26.75Z" fill="white" stroke="white"/>
</g>
<defs>
<filter id="filter0_d_1_2918" x="10.5" y="14" width="32" height="32" filterUnits="userSpaceOnUse" color-interpolation-filters="sRGB">
<feFlood flood-opacity="0" result="BackgroundImageFix"/>
<feColorMatrix in="SourceAlpha" type="matrix" values="0 0 0 0 0 0 0 0 0 0 0 0 0 0 0 0 0 0 127 0" result="hardAlpha"/>
<feOffset dy="4"/>
<feGaussianBlur stdDeviation="2"/>
<feComposite in2="hardAlpha" operator="out"/>
<feColorMatrix type="matrix" values="0 0 0 0 0 0 0 0 0 0 0 0 0 0 0 0 0 0 0.25 0"/>
<feBlend mode="normal" in2="BackgroundImageFix" result="effect1_dropShadow_1_2918"/>
<feBlend mode="normal" in="SourceGraphic" in2="effect1_dropShadow_1_2918" result="shape"/>
</filter>
</defs>
</svg>