<svg xmlns:xlink="http://www.w3.org/1999/xlink" xmlns="http://www.w3.org/2000/svg" width="53" height="52" viewBox="0 0 53 52" fill="none">
<rect x="0.5" width="52" height="52" rx="26" fill="#015404"/>
<path d="M32.5 16.5H20.5C19.1118 16.5 18 17.6105 18 18.97V29.88C18 31.2395 19.1118 32.35 20.5 32.35H21.26C22.1893 32.35 23.0769 32.7103 23.7325 33.3654C23.7328 33.3657 23.7332 33.3661 23.7336 33.3664L25.4413 35.0542C26.0265 35.6319 26.9832 35.6319 27.5685 35.0544L32.5 16.5ZM32.5 16.5C33.8882 16.5 35 17.6105 35 18.97V29.88C35 31.2395 33.8882 32.35 32.5 32.35H31.75C30.8316 32.35 29.9338 32.7097 29.2776 33.3653C29.2772 33.3657 29.2768 33.3661 29.2764 33.3664L27.5687 35.0542L32.5 16.5ZM22.5752 27.2108L22.5749 27.2112C21.906 28.2073 22.6025 29.56 23.82 29.56H29.18C30.383 29.56 31.0966 28.211 30.4251 27.2112L30.4248 27.2108C29.6384 26.0428 28.1507 25.3 26.5 25.3C24.8493 25.3 23.3616 26.0427 22.5752 27.2108ZM29.33 22.08C29.33 20.5139 28.0661 19.25 26.5 19.25C24.9339 19.25 23.67 20.5139 23.67 22.08C23.67 23.6347 24.9325 24.91 26.5 24.91C28.0661 24.91 29.33 23.6461 29.33 22.08Z" fill="#FFBE2B" stroke="#FFBE2B"/>
</svg>