<svg xmlns:xlink="http://www.w3.org/1999/xlink" xmlns="http://www.w3.org/2000/svg" width="53" height="52" viewBox="0 0 53 52" fill="none">
<rect x="0.400391" width="52" height="52" rx="26" fill="#015404"/>
<path d="M36.4004 33V36H16.4004V33C16.4004 32.45 16.8504 32 17.4004 32H35.4004C35.9504 32 36.4004 32.45 36.4004 33Z" fill="white" stroke="white" stroke-width="1.5" stroke-miterlimit="10" stroke-linecap="round" stroke-linejoin="round"/>
<path d="M21.4004 25H19.4004V32H21.4004V25Z" fill="white"/>
<path d="M25.4004 25H23.4004V32H25.4004V25Z" fill="white"/>
<path d="M29.4004 25H27.4004V32H29.4004V25Z" fill="white"/>
<path d="M33.4004 25H31.4004V32H33.4004V25Z" fill="white"/>
<path d="M37.4004 36.75H15.4004C14.9904 36.75 14.6504 36.41 14.6504 36C14.6504 35.59 14.9904 35.25 15.4004 35.25H37.4004C37.8104 35.25 38.1504 35.59 38.1504 36C38.1504 36.41 37.8104 36.75 37.4004 36.75Z" fill="white"/>
<path d="M35.7704 19.75L26.7704 16.15C26.5704 16.07 26.2304 16.07 26.0304 16.15L17.0304 19.75C16.6804 19.89 16.4004 20.3 16.4004 20.68V24C16.4004 24.55 16.8504 25 17.4004 25H35.4004C35.9504 25 36.4004 24.55 36.4004 24V20.68C36.4004 20.3 36.1204 19.89 35.7704 19.75ZM26.4004 22.5C25.5704 22.5 24.9004 21.83 24.9004 21C24.9004 20.17 25.5704 19.5 26.4004 19.5C27.2304 19.5 27.9004 20.17 27.9004 21C27.9004 21.83 27.2304 22.5 26.4004 22.5Z" fill="#FFBE2B"/>
</svg>