<svg xmlns:xlink="http://www.w3.org/1999/xlink" xmlns="http://www.w3.org/2000/svg" width="52" height="52" viewBox="0 0 52 52" fill="none">
<rect width="52" height="52" rx="26" fill="#015404"/>
<g filter="url(#filter0_d_1_1931)">
<path d="M36 35.25C36 35.66 35.66 36 35.25 36H16.75C16.34 36 16 35.66 16 35.25C16 34.84 16.34 34.5 16.75 34.5H35.25C35.66 34.5 36 34.84 36 35.25Z" fill="white"/>
<path d="M29.3899 18.52L18.6499 29.26C18.2399 29.67 17.5799 29.67 17.1799 29.26H17.1699C15.7799 27.86 15.7799 25.6 17.1699 24.21L24.3199 17.06C25.7199 15.66 27.9799 15.66 29.3799 17.06C29.7899 17.45 29.7899 18.12 29.3899 18.52Z" fill="#FFBE2B"/>
<path d="M34.8199 22.4899L31.7699 19.4399C31.3599 19.0299 30.6999 19.0299 30.2999 19.4399L19.5599 30.1799C19.1499 30.5799 19.1499 31.2399 19.5599 31.6499L22.6099 34.7099C24.0099 36.0999 26.2699 36.0999 27.6699 34.7099L34.8099 27.5599C36.2299 26.1599 36.2299 23.8899 34.8199 22.4899ZM26.7599 31.5199L25.5499 32.7399C25.2999 32.9899 24.8899 32.9899 24.6299 32.7399C24.3799 32.4899 24.3799 32.0799 24.6299 31.8199L25.8499 30.5999C26.0899 30.3599 26.5099 30.3599 26.7599 30.5999C27.0099 30.8499 27.0099 31.2799 26.7599 31.5199ZM30.7299 27.5499L28.2899 29.9999C28.0399 30.2399 27.6299 30.2399 27.3699 29.9999C27.1199 29.7499 27.1199 29.3399 27.3699 29.0799L29.8199 26.6299C30.0599 26.3899 30.4799 26.3899 30.7299 26.6299C30.9799 26.8899 30.9799 27.2999 30.7299 27.5499Z" fill="white"/>
</g>
<defs>
<filter id="filter0_d_1_1931" x="10" y="14" width="32" height="32" filterUnits="userSpaceOnUse" color-interpolation-filters="sRGB">
<feFlood flood-opacity="0" result="BackgroundImageFix"/>
<feColorMatrix in="SourceAlpha" type="matrix" values="0 0 0 0 0 0 0 0 0 0 0 0 0 0 0 0 0 0 127 0" result="hardAlpha"/>
<feOffset dy="4"/>
<feGaussianBlur stdDeviation="2"/>
<feComposite in2="hardAlpha" operator="out"/>
<feColorMatrix type="matrix" values="0 0 0 0 0 0 0 0 0 0 0 0 0 0 0 0 0 0 0.25 0"/>
<feBlend mode="normal" in2="BackgroundImageFix" result="effect1_dropShadow_1_1931"/>
<feBlend mode="normal" in="SourceGraphic" in2="effect1_dropShadow_1_1931" result="shape"/>
</filter>
</defs>
</svg>