<svg xmlns:xlink="http://www.w3.org/1999/xlink" xmlns="http://www.w3.org/2000/svg" width="53" height="52" viewBox="0 0 53 52" fill="none">
<rect x="0.5" width="52" height="52" rx="26" fill="#015404"/>
<g filter="url(#filter0_d_1_2750)">
<path d="M26.5 16C20.98 16 16.5 20.48 16.5 26C16.5 31.52 20.98 36 26.5 36C32.02 36 36.5 31.52 36.5 26C36.5 20.48 32.02 16 26.5 16ZM26.5 22.75C26.09 22.75 25.75 22.41 25.75 22C25.75 21.59 26.09 21.25 26.5 21.25C29.12 21.25 31.25 23.38 31.25 26C31.25 28.62 29.12 30.75 26.5 30.75C26.09 30.75 25.75 30.41 25.75 30C25.75 29.59 26.09 29.25 26.5 29.25C28.29 29.25 29.75 27.79 29.75 26C29.75 24.21 28.29 22.75 26.5 22.75ZM26.5 33.75C22.23 33.75 18.75 30.27 18.75 26C18.75 25.59 19.09 25.25 19.5 25.25C19.91 25.25 20.25 25.59 20.25 26C20.25 29.45 23.05 32.25 26.5 32.25C29.95 32.25 32.75 29.45 32.75 26C32.75 22.55 29.95 19.75 26.5 19.75C26.09 19.75 25.75 19.41 25.75 19C25.75 18.59 26.09 18.25 26.5 18.25C30.77 18.25 34.25 21.73 34.25 26C34.25 30.27 30.77 33.75 26.5 33.75Z" fill="#FFBE2B"/>
</g>
<defs>
<filter id="filter0_d_1_2750" x="10.5" y="14" width="32" height="32" filterUnits="userSpaceOnUse" color-interpolation-filters="sRGB">
<feFlood flood-opacity="0" result="BackgroundImageFix"/>
<feColorMatrix in="SourceAlpha" type="matrix" values="0 0 0 0 0 0 0 0 0 0 0 0 0 0 0 0 0 0 127 0" result="hardAlpha"/>
<feOffset dy="4"/>
<feGaussianBlur stdDeviation="2"/>
<feComposite in2="hardAlpha" operator="out"/>
<feColorMatrix type="matrix" values="0 0 0 0 0 0 0 0 0 0 0 0 0 0 0 0 0 0 0.25 0"/>
<feBlend mode="normal" in2="BackgroundImageFix" result="effect1_dropShadow_1_2750"/>
<feBlend mode="normal" in="SourceGraphic" in2="effect1_dropShadow_1_2750" result="shape"/>
</filter>
</defs>
</svg>