<svg xmlns:xlink="http://www.w3.org/1999/xlink" xmlns="http://www.w3.org/2000/svg" width="53" height="52" viewBox="0 0 53 52" fill="none">
<rect x="0.5" width="52" height="52" rx="26" fill="#015404"/>
<g filter="url(#filter0_d_1_2722)">
<path d="M29.5 29.5C29.5 33.09 26.59 36 23 36C19.41 36 16.5 33.09 16.5 29.5C16.5 25.91 19.41 23 23 23C23.17 23 23.35 23.01 23.52 23.02C26.69 23.27 29.23 25.81 29.48 28.98C29.49 29.15 29.5 29.33 29.5 29.5Z" fill="white"/>
<path d="M36.5001 22.5C36.5001 25.76 34.1001 28.45 30.9801 28.92V28.86C30.6701 24.98 27.5201 21.83 23.6101 21.52H23.5801C24.0501 18.4 26.7401 16 30.0001 16C33.5901 16 36.5001 18.91 36.5001 22.5Z" fill="white"/>
<path d="M17.5 16.5H20.09C20.5261 16.5 20.7589 17.037 20.4448 17.3581L17.8564 19.9464C17.5431 20.2598 17 20.0369 17 19.59V17C17 16.7261 17.2261 16.5 17.5 16.5Z" fill="#FFBE2B" stroke="#FFBE2B"/>
<path d="M35.4997 35.5H32.9097C32.4737 35.5 32.2408 34.963 32.5549 34.6419L35.1433 32.0536C35.4567 31.7402 35.9997 31.9632 35.9997 32.41V35C35.9997 35.2739 35.7736 35.5 35.4997 35.5Z" fill="#FFBE2B" stroke="#FFBE2B"/>
</g>
<defs>
<filter id="filter0_d_1_2722" x="10.5" y="14" width="32" height="32" filterUnits="userSpaceOnUse" color-interpolation-filters="sRGB">
<feFlood flood-opacity="0" result="BackgroundImageFix"/>
<feColorMatrix in="SourceAlpha" type="matrix" values="0 0 0 0 0 0 0 0 0 0 0 0 0 0 0 0 0 0 127 0" result="hardAlpha"/>
<feOffset dy="4"/>
<feGaussianBlur stdDeviation="2"/>
<feComposite in2="hardAlpha" operator="out"/>
<feColorMatrix type="matrix" values="0 0 0 0 0 0 0 0 0 0 0 0 0 0 0 0 0 0 0.25 0"/>
<feBlend mode="normal" in2="BackgroundImageFix" result="effect1_dropShadow_1_2722"/>
<feBlend mode="normal" in="SourceGraphic" in2="effect1_dropShadow_1_2722" result="shape"/>
</filter>
</defs>
</svg>