<svg xmlns:xlink="http://www.w3.org/1999/xlink" xmlns="http://www.w3.org/2000/svg" width="53" height="52" viewBox="0 0 53 52" fill="none">
<rect x="0.5" width="52" height="52" rx="26" fill="#015404"/>
<path d="M31.6504 24C32.2027 24 32.6504 23.5523 32.6504 23C32.6504 22.4477 32.2027 22 31.6504 22C31.0981 22 30.6504 22.4477 30.6504 23C30.6504 23.5523 31.0981 24 31.6504 24Z" fill="#FFBE2B"/>
<path d="M31.6504 30C32.2027 30 32.6504 29.5523 32.6504 29C32.6504 28.4477 32.2027 28 31.6504 28C31.0981 28 30.6504 28.4477 30.6504 29C30.6504 29.5523 31.0981 30 31.6504 30Z" fill="#FFBE2B"/>
<path d="M34.25 27C34.8023 27 35.25 26.5523 35.25 26C35.25 25.4477 34.8023 25 34.25 25C33.6977 25 33.25 25.4477 33.25 26C33.25 26.5523 33.6977 27 34.25 27Z" fill="#FFBE2B"/>
<path d="M21.2998 24C21.8521 24 22.2998 23.5523 22.2998 23C22.2998 22.4477 21.8521 22 21.2998 22C20.7475 22 20.2998 22.4477 20.2998 23C20.2998 23.5523 20.7475 24 21.2998 24Z" fill="#FFBE2B"/>
<path d="M21.2998 30C21.8521 30 22.2998 29.5523 22.2998 29C22.2998 28.4477 21.8521 28 21.2998 28C20.7475 28 20.2998 28.4477 20.2998 29C20.2998 29.5523 20.7475 30 21.2998 30Z" fill="#FFBE2B"/>
<path d="M18.7002 27C19.2525 27 19.7002 26.5523 19.7002 26C19.7002 25.4477 19.2525 25 18.7002 25C18.1479 25 17.7002 25.4477 17.7002 26C17.7002 26.5523 18.1479 27 18.7002 27Z" fill="#FFBE2B"/>
<path d="M30.4004 20.2C30.9527 20.2 31.4004 19.7522 31.4004 19.2C31.4004 18.6477 30.9527 18.2 30.4004 18.2C29.8481 18.2 29.4004 18.6477 29.4004 19.2C29.4004 19.7522 29.8481 20.2 30.4004 20.2Z" fill="#FFBE2B"/>
<path d="M22.6006 20.2C23.1529 20.2 23.6006 19.7522 23.6006 19.2C23.6006 18.6477 23.1529 18.2 22.6006 18.2C22.0483 18.2 21.6006 18.6477 21.6006 19.2C21.6006 19.7522 22.0483 20.2 22.6006 20.2Z" fill="#FFBE2B"/>
<path d="M26.5498 21C27.1021 21 27.5498 20.5523 27.5498 20C27.5498 19.4477 27.1021 19 26.5498 19C25.9975 19 25.5498 19.4477 25.5498 20C25.5498 20.5523 25.9975 21 26.5498 21Z" fill="#FFBE2B"/>
<path d="M30.4004 34C30.9527 34 31.4004 33.5523 31.4004 33C31.4004 32.4477 30.9527 32 30.4004 32C29.8481 32 29.4004 32.4477 29.4004 33C29.4004 33.5523 29.8481 34 30.4004 34Z" fill="#FFBE2B"/>
<path d="M22.6006 34C23.1529 34 23.6006 33.5523 23.6006 33C23.6006 32.4477 23.1529 32 22.6006 32C22.0483 32 21.6006 32.4477 21.6006 33C21.6006 33.5523 22.0483 34 22.6006 34Z" fill="#FFBE2B"/>
<path d="M26.5498 33.2C27.1021 33.2 27.5498 32.7522 27.5498 32.2C27.5498 31.6477 27.1021 31.2 26.5498 31.2C25.9975 31.2 25.5498 31.6477 25.5498 32.2C25.5498 32.7522 25.9975 33.2 26.5498 33.2Z" fill="#FFBE2B"/>
<path d="M28.25 24.25C28.9404 24.25 29.5 23.6904 29.5 23C29.5 22.3096 28.9404 21.75 28.25 21.75C27.5596 21.75 27 22.3096 27 23C27 23.6904 27.5596 24.25 28.25 24.25Z" fill="#FFBE2B"/>
<path d="M24.75 24.25C25.4404 24.25 26 23.6904 26 23C26 22.3096 25.4404 21.75 24.75 21.75C24.0596 21.75 23.5 22.3096 23.5 23C23.5 23.6904 24.0596 24.25 24.75 24.25Z" fill="#FFBE2B"/>
<path d="M30 27.25C30.6904 27.25 31.25 26.6904 31.25 26C31.25 25.3096 30.6904 24.75 30 24.75C29.3096 24.75 28.75 25.3096 28.75 26C28.75 26.6904 29.3096 27.25 30 27.25Z" fill="#FFBE2B"/>
<path d="M23 27.25C23.6904 27.25 24.25 26.6904 24.25 26C24.25 25.3096 23.6904 24.75 23 24.75C22.3096 24.75 21.75 25.3096 21.75 26C21.75 26.6904 22.3096 27.25 23 27.25Z" fill="#FFBE2B"/>
<path d="M24.75 30.25C25.4404 30.25 26 29.6904 26 29C26 28.3096 25.4404 27.75 24.75 27.75C24.0596 27.75 23.5 28.3096 23.5 29C23.5 29.6904 24.0596 30.25 24.75 30.25Z" fill="#FFBE2B"/>
<path d="M28.25 30.25C28.9404 30.25 29.5 29.6904 29.5 29C29.5 28.3096 28.9404 27.75 28.25 27.75C27.5596 27.75 27 28.3096 27 29C27 29.6904 27.5596 30.25 28.25 30.25Z" fill="#FFBE2B"/>
<path d="M26.5001 17.3299C26.0101 17.3299 25.6201 16.9399 25.6201 16.4499C25.6201 15.9599 26.0101 15.5699 26.5001 15.5699C26.9901 15.5699 27.3801 15.9599 27.3801 16.4499C27.3801 16.9399 26.9901 17.3299 26.5001 17.3299Z" fill="white"/>
<path d="M31.7502 17.6C31.3302 17.6 30.9902 17.26 30.9902 16.85C30.9902 16.44 31.3302 16.1 31.7402 16.1C32.1502 16.1 32.5002 16.44 32.5002 16.85C32.5002 17.26 32.1702 17.6 31.7502 17.6Z" fill="white"/>
<path d="M21.25 17.6C20.84 17.6 20.5 17.26 20.5 16.85C20.5 16.44 20.83 16.1 21.25 16.1H21.26C21.67 16.1 22.01 16.44 22.01 16.85C22.01 17.26 21.67 17.6 21.25 17.6Z" fill="white"/>
<path d="M26.5001 36.38C26.0101 36.38 25.6201 35.99 25.6201 35.5C25.6201 35.01 26.0101 34.62 26.5001 34.62C26.9901 34.62 27.3801 35.01 27.3801 35.5C27.3801 35.99 26.9901 36.38 26.5001 36.38Z" fill="white"/>
<path d="M31.7502 35.85C31.3302 35.85 30.9902 35.51 30.9902 35.1C30.9902 34.69 31.3302 34.35 31.7402 34.35C32.1502 34.35 32.5002 34.69 32.5002 35.1C32.5002 35.51 32.1702 35.85 31.7502 35.85Z" fill="white"/>
<path d="M21.25 35.85C20.84 35.85 20.5 35.51 20.5 35.1C20.5 34.69 20.83 34.35 21.25 34.35H21.26C21.67 34.35 22.01 34.69 22.01 35.1C22.01 35.51 21.67 35.85 21.25 35.85Z" fill="white"/>
<path d="M16.0499 26.88C15.5699 26.88 15.1699 26.49 15.1699 26.01V26C15.1699 25.52 15.5599 25.12 16.0499 25.12C16.5399 25.12 16.9299 25.51 16.9299 26C16.9299 26.49 16.5299 26.88 16.0499 26.88Z" fill="white"/>
<path d="M18.25 31.75C17.84 31.75 17.5 31.42 17.5 31V30.99C17.5 30.58 17.84 30.24 18.25 30.24C18.66 30.24 19 30.58 19 30.99C19 31.4 18.66 31.75 18.25 31.75Z" fill="white"/>
<path d="M18.25 21.76C17.84 21.76 17.5 21.42 17.5 21.01C17.5 20.6 17.84 20.26 18.25 20.26C18.66 20.26 19 20.59 19 21V21.01C19 21.42 18.66 21.76 18.25 21.76Z" fill="white"/>
<path d="M37.0001 26.88C36.5201 26.88 36.1201 26.49 36.1201 26.01V26C36.1201 25.52 36.5101 25.12 37.0001 25.12C37.4901 25.12 37.8801 25.51 37.8801 26C37.8801 26.49 37.4801 26.88 37.0001 26.88Z" fill="white"/>
<path d="M34.7998 31.75C34.3898 31.75 34.0498 31.42 34.0498 31V30.99C34.0498 30.58 34.3898 30.24 34.7998 30.24C35.2098 30.24 35.5498 30.58 35.5498 30.99C35.5498 31.4 35.2098 31.75 34.7998 31.75Z" fill="white"/>
<path d="M34.7998 21.76C34.3898 21.76 34.0498 21.42 34.0498 21.01C34.0498 20.6 34.3898 20.26 34.7998 20.26C35.2098 20.26 35.5498 20.59 35.5498 21.01V21.02C35.5498 21.42 35.2098 21.76 34.7998 21.76Z" fill="white"/>
</svg>