<svg xmlns:xlink="http://www.w3.org/1999/xlink" xmlns="http://www.w3.org/2000/svg" width="53" height="52" viewBox="0 0 53 52" fill="none">
<rect x="0.5" width="52" height="52" rx="26" fill="#015404"/>
<path d="M32.1005 19.31L26.4505 16.27C25.8505 15.95 25.1405 15.95 24.5405 16.27L18.9005 19.31C18.4905 19.54 18.2305 19.98 18.2305 20.46C18.2305 20.95 18.4805 21.39 18.9005 21.61L24.5505 24.65C24.8505 24.81 25.1805 24.89 25.5005 24.89C25.8205 24.89 26.1605 24.81 26.4505 24.65L32.1005 21.61C32.5105 21.39 32.7705 20.95 32.7705 20.46C32.7705 19.98 32.5105 19.54 32.1005 19.31Z" fill="white"/>
<path d="M23.62 25.7101L18.37 23.0901C17.96 22.8801 17.5 22.9101 17.11 23.1401C16.73 23.3801 16.5 23.7901 16.5 24.2401V29.2001C16.5 30.0601 16.98 30.8301 17.75 31.2201L23 33.8401C23.18 33.9301 23.38 33.9801 23.58 33.9801C23.81 33.9801 24.05 33.9101 24.26 33.7901C24.64 33.5501 24.87 33.1401 24.87 32.6901V27.7301C24.86 26.8701 24.38 26.1001 23.62 25.7101Z" fill="white"/>
<path d="M34.4996 24.2401V26.7001C34.0196 26.5601 33.5096 26.5001 32.9996 26.5001C31.6396 26.5001 30.3096 26.9701 29.2596 27.8101C27.8196 28.9401 26.9996 30.6501 26.9996 32.5001C26.9996 32.9901 27.0596 33.4801 27.1896 33.9501C27.0396 33.9301 26.8896 33.8701 26.7496 33.7801C26.3696 33.5501 26.1396 33.1401 26.1396 32.6901V27.7301C26.1396 26.8701 26.6196 26.1001 27.3796 25.7101L32.6296 23.0901C33.0396 22.8801 33.4996 22.9101 33.8896 23.1401C34.2696 23.3801 34.4996 23.7901 34.4996 24.2401Z" fill="white"/>
<path d="M37.08 35.5L36.24 34.66C36.68 34 36.94 33.2 36.94 32.35C36.94 30.02 35.05 28.13 32.72 28.13C30.39 28.13 28.5 30.02 28.5 32.35C28.5 34.68 30.39 36.57 32.72 36.57C33.57 36.57 34.37 36.31 35.03 35.87L35.87 36.71C36.04 36.88 36.25 36.96 36.47 36.96C36.69 36.96 36.91 36.88 37.07 36.71C37.41 36.37 37.41 35.83 37.08 35.5Z" fill="#FFBE2B"/>
</svg>