<svg xmlns:xlink="http://www.w3.org/1999/xlink" xmlns="http://www.w3.org/2000/svg" width="53" height="52" viewBox="0 0 53 52" fill="none">
<rect x="0.5" width="52" height="52" rx="26" fill="#015404"/>
<g filter="url(#filter0_d_1_2729)">
<path d="M36.5 35.25C36.5 35.66 36.16 36 35.75 36H17.25C16.84 36 16.5 35.66 16.5 35.25C16.5 34.84 16.84 34.5 17.25 34.5H35.75C36.16 34.5 36.5 34.84 36.5 35.25Z" fill="white"/>
<path d="M29.8904 18.52L19.1504 29.26C18.7404 29.67 18.0804 29.67 17.6804 29.26H17.6704C16.2804 27.86 16.2804 25.6 17.6704 24.21L24.8204 17.06C26.2204 15.66 28.4804 15.66 29.8804 17.06C30.2904 17.45 30.2904 18.12 29.8904 18.52Z" fill="#FFBE2B"/>
<path d="M35.3204 22.4899L32.2704 19.4399C31.8604 19.0299 31.2004 19.0299 30.8004 19.4399L20.0604 30.1799C19.6504 30.5799 19.6504 31.2399 20.0604 31.6499L23.1104 34.7099C24.5104 36.0999 26.7704 36.0999 28.1704 34.7099L35.3104 27.5599C36.7304 26.1599 36.7304 23.8899 35.3204 22.4899ZM27.2604 31.5199L26.0504 32.7399C25.8004 32.9899 25.3904 32.9899 25.1304 32.7399C24.8804 32.4899 24.8804 32.0799 25.1304 31.8199L26.3504 30.5999C26.5904 30.3599 27.0104 30.3599 27.2604 30.5999C27.5104 30.8499 27.5104 31.2799 27.2604 31.5199ZM31.2304 27.5499L28.7904 29.9999C28.5404 30.2399 28.1304 30.2399 27.8704 29.9999C27.6204 29.7499 27.6204 29.3399 27.8704 29.0799L30.3204 26.6299C30.5604 26.3899 30.9804 26.3899 31.2304 26.6299C31.4804 26.8899 31.4804 27.2999 31.2304 27.5499Z" fill="white"/>
</g>
<defs>
<filter id="filter0_d_1_2729" x="10.5" y="14" width="32" height="32" filterUnits="userSpaceOnUse" color-interpolation-filters="sRGB">
<feFlood flood-opacity="0" result="BackgroundImageFix"/>
<feColorMatrix in="SourceAlpha" type="matrix" values="0 0 0 0 0 0 0 0 0 0 0 0 0 0 0 0 0 0 127 0" result="hardAlpha"/>
<feOffset dy="4"/>
<feGaussianBlur stdDeviation="2"/>
<feComposite in2="hardAlpha" operator="out"/>
<feColorMatrix type="matrix" values="0 0 0 0 0 0 0 0 0 0 0 0 0 0 0 0 0 0 0.25 0"/>
<feBlend mode="normal" in2="BackgroundImageFix" result="effect1_dropShadow_1_2729"/>
<feBlend mode="normal" in="SourceGraphic" in2="effect1_dropShadow_1_2729" result="shape"/>
</filter>
</defs>
</svg>